<?xml version="1.0" encoding="iso-8859-1"?>
<!-- Uploaded to: SVG Repo, www.svgrepo.com, Generator: SVG Repo Mixer Tools -->
<svg version="1.1" id="Layer_1" xmlns="http://www.w3.org/2000/svg" xmlns:xlink="http://www.w3.org/1999/xlink" 
	 viewBox="0 0 511.99 511.99" xml:space="preserve">
<g>
	<path style="fill:#967ADC;" d="M224.013,400.085c-0.695,0-1.398-0.062-2.102-0.203c-5.781-1.156-9.523-6.766-8.375-12.547
		l10.664-53.436c1.156-5.781,6.773-9.516,12.555-8.375c5.773,1.156,9.523,6.781,8.367,12.547l-10.664,53.436
		C233.442,396.585,228.989,400.085,224.013,400.085z"/>
	<path style="fill:#967ADC;" d="M266.652,400.085c-4.984,0-9.438-3.5-10.453-8.578l-10.664-53.436
		c-1.148-5.766,2.594-11.391,8.375-12.547c5.773-1.156,11.39,2.594,12.546,8.375l10.663,53.436
		c1.156,5.781-2.593,11.391-8.366,12.547C268.043,400.022,267.34,400.085,266.652,400.085z"/>
</g>
<path style="fill:#A0D468;" d="M223.997,111.998c0,5.891-4.773,10.656-10.664,10.656s-10.672-4.765-10.672-10.656
	c0-5.89,4.781-10.671,10.672-10.671C219.224,101.327,223.997,106.108,223.997,111.998z"/>
<path style="fill:#ED5564;" d="M96,26.657c0,5.891-4.773,10.671-10.664,10.671c-5.89,0-10.671-4.781-10.671-10.671
	s4.781-10.656,10.671-10.656C91.226,16,96,20.766,96,26.657z"/>
<path style="fill:#AC92EB;" d="M319.995,474.647c0,5.891-4.766,10.672-10.656,10.672s-10.672-4.781-10.672-10.672
	s4.781-10.656,10.672-10.656S319.995,468.757,319.995,474.647z"/>
<path style="fill:#FFCE54;" d="M511.99,389.429c0,5.891-4.766,10.656-10.655,10.656c-5.891,0-10.672-4.766-10.672-10.656
	s4.781-10.67,10.672-10.67C507.224,378.759,511.99,383.538,511.99,389.429z"/>
<path style="fill:#48CFAD;" d="M106.663,453.319v-10.672c0-5.891-4.773-10.656-10.664-10.656s-10.664,4.766-10.664,10.656v10.672
	c-5.89,0-10.671,4.781-10.671,10.672s4.781,10.656,10.671,10.656v10.672c0,5.891,4.773,10.67,10.664,10.67
	s10.664-4.779,10.664-10.67v-10.672c5.891,0,10.672-4.766,10.672-10.656S112.554,453.319,106.663,453.319z"/>
<path style="fill:#FC6E51;" d="M362.665,48V37.328c0-5.89-4.781-10.671-10.672-10.671c-5.89,0-10.655,4.781-10.655,10.671V48
	c-5.891,0-10.671,4.766-10.671,10.656s4.78,10.672,10.671,10.672v10.671c0,5.89,4.766,10.656,10.655,10.656
	c5.891,0,10.672-4.766,10.672-10.656V69.328c5.891,0,10.672-4.781,10.672-10.672S368.556,48,362.665,48z"/>
<g>
	<path style="fill:#EC87C0;" d="M147.717,389.429L147.717,389.429c-22.539,0-42.882-9.107-58.834-26.311
		c-16.531-17.844-27.476-43.984-31.648-75.623c-1.859-14.078,6.883-25.047,16.687-32.703c-16.945-6.047-28.022-12.406-27.491-23.296
		c0.406-8.375,0.711-51.843-33.562-84.139c-6.328-5.953-13.679-15.625-12.796-27.843c1.039-14.359,12.664-22.89,13.992-23.812
		c0.438-0.312,0.898-0.578,1.383-0.828c1.227-0.609,8.016-3.656,20.539-3.656c25.711,0,53.14,12.688,71.616,23.328
		c37.679,21.703,79.506,57.92,124.318,107.639c1.766,1.953,2.742,4.5,2.742,7.14v71.013c0,0.609-0.047,1.219-0.156,1.828
		c-0.133,0.766-3.398,19.078-13.586,38.609c-14.101,27.016-34.694,43.451-59.562,47.529
		C156.803,389.038,152.217,389.429,147.717,389.429z"/>
	<path style="fill:#EC87C0;" d="M342.947,389.429c-4.5,0-9.094-0.391-13.64-1.125c-24.859-4.078-45.453-20.514-59.562-47.529
		c-10.195-19.531-13.461-37.844-13.594-38.609c-0.102-0.609-0.156-1.219-0.156-1.828v-71.013c0-2.641,0.977-5.188,2.742-7.14
		c44.819-49.718,86.646-85.936,124.317-107.639c18.484-10.64,45.905-23.328,71.624-23.328c12.516,0,19.312,3.047,20.547,3.656
		c0.469,0.25,0.938,0.516,1.375,0.828c1.328,0.922,12.952,9.453,13.983,23.812c0.891,12.218-6.469,21.89-12.78,27.843
		c-34.281,32.312-33.984,75.764-33.562,84.139c0.516,10.89-10.547,17.25-27.499,23.296c9.797,7.656,18.546,18.625,16.687,32.703
		c-4.172,31.639-15.124,57.795-31.655,75.623C385.837,380.321,365.477,389.429,342.947,389.429z"/>
</g>
<g>
	<path style="fill:#EAC6BB;" d="M309.323,282.667c-1.609,0-3.234-0.375-4.766-1.141l-42.663-21.328
		c-5.273-2.641-7.406-9.046-4.773-14.312c2.633-5.266,9.039-7.406,14.312-4.766l42.671,21.328c5.266,2.641,7.406,9.047,4.766,14.312
		C317.01,280.495,313.229,282.667,309.323,282.667z"/>
	<path style="fill:#EAC6BB;" d="M181.342,282.667c-3.914,0-7.68-2.172-9.547-5.906c-2.641-5.266-0.5-11.672,4.766-14.312
		l42.663-21.328c5.273-2.641,11.68-0.5,14.312,4.766s0.5,11.671-4.766,14.312l-42.671,21.328
		C184.568,282.292,182.943,282.667,181.342,282.667z"/>
</g>
<path style="fill:#AC92EB;" d="M245.332,218.653c-17.648,0-31.999,14.359-31.999,31.999v63.998c0,17.656,14.351,32,31.999,32
	c17.64,0,32.006-14.344,32.006-32v-63.998C277.339,233.012,262.973,218.653,245.332,218.653z"/>
<path style="fill:#EAC6BB;" d="M245.332,175.388c-17.859,0-32.39,14.516-32.39,32.375s14.531,32.39,32.39,32.39
	c17.851,0,32.381-14.531,32.381-32.39S263.182,175.388,245.332,175.388z"/>
<rect x="213.335" y="293.325" style="fill:#967ADC;" width="64" height="21.326"/>
</svg>